<svg xmlns:xlink="http://www.w3.org/1999/xlink" width="46" height="50" viewBox="0 0 46 50" fill="none" xmlns="http://www.w3.org/2000/svg">
<path d="M42.7599 2.02133C43.3207 2.02133 43.7739 2.4745 43.7739 3.03526V19.1994V20.2035C43.7869 22.1955 43.8032 24.683 43.4544 27.3206C43.0501 30.3949 42.2481 32.8955 41.0157 34.9657C36.9959 41.7046 29.7745 46.6438 22.9966 47.3024C22.964 47.3056 22.9314 47.3089 22.8988 47.3089C22.8661 47.3089 22.8335 47.3089 22.8009 47.3024C16.0165 46.6373 8.79508 41.7013 4.78177 34.9657C3.54289 32.8955 2.7474 30.3917 2.34313 27.3206C1.99755 24.683 2.01385 22.1988 2.03015 20.2035V19.1994L2.03341 3.03526C2.03341 2.4745 2.48658 2.02133 3.04734 2.02133H42.7599ZM42.7599 0H3.04408C1.37159 0 0.00882188 1.36277 0.00882188 3.03526V20.1937C-0.0107394 22.127 -0.0303006 24.7841 0.334843 27.5814C0.778231 30.9361 1.66175 33.6877 3.04082 35.9992C5.15995 39.5529 8.12022 42.6892 11.6054 45.0757C15.1231 47.4817 18.9148 48.9455 22.576 49.3074C22.6803 49.3205 22.7879 49.327 22.8955 49.327C23.0031 49.327 23.1074 49.3205 23.215 49.3074C26.8729 48.9455 30.6646 47.485 34.1823 45.0789C37.6675 42.6924 40.631 39.5529 42.7534 35.9992C44.1357 33.6845 45.0193 30.9329 45.4594 27.5846C45.8245 24.8135 45.8082 22.2575 45.7952 20.2003V19.1929V3.03852C45.7952 1.36277 44.4324 0.00326021 42.7599 0.00326021V0Z" fill="#0156FC"/>
<path d="M40.0001 22.486C40.2968 22.711 40.7206 22.4991 40.7206 22.1274L40.7108 20.0833V5.51665C40.7141 5.26561 40.5119 5.06348 40.2609 5.06348H5.53968C5.28865 5.06348 5.08652 5.26561 5.08652 5.51665V14.4757C5.08652 14.8604 5.17454 15.2386 5.34733 15.5809C5.52012 15.9232 5.7679 16.2232 6.07762 16.4514L32.1952 35.9833C32.4234 36.1528 32.4397 36.4821 32.231 36.6777C31.7485 37.1342 31.2399 37.5612 30.7118 37.9655C30.5487 38.0894 30.3271 38.0894 30.1673 37.9688L5.80702 19.7149C5.51034 19.4932 5.08652 19.7018 5.08652 20.0767C5.08652 23.2065 4.8094 29.0456 7.44039 33.5186C10.3778 38.5165 15.4214 42.4613 20.6116 43.7393C21.3615 43.9219 22.1113 44.0523 22.8612 44.1208C22.8905 44.124 22.9199 44.124 22.9459 44.1208C26.3431 43.8143 29.7989 42.2625 32.7657 39.9184C33.509 39.3283 34.223 38.6925 34.9011 38.0112C36.2378 36.6647 37.405 35.1585 38.3667 33.5251C39.2372 32.0482 39.7882 30.4214 40.137 28.7945C40.2153 28.4424 40.2805 28.0871 40.3392 27.7285C40.4924 26.796 40.1142 25.8538 39.3611 25.2898L17.2471 8.75403C16.9015 8.49322 17.0808 7.94224 17.521 7.94224H20.4486C20.5464 7.94224 20.641 7.97484 20.7225 8.03353L40.0034 22.4893L40.0001 22.486Z" fill="#0156FC"/>
</svg>