<?xml version="1.0" encoding="UTF-8"?>
<!DOCTYPE svg PUBLIC "-//W3C//DTD SVG 1.1//EN" "http://www.w3.org/Graphics/SVG/1.1/DTD/svg11.dtd">
<svg version="1.2" width="352.77mm" height="352.77mm" viewBox="0 0 35277 35277" preserveAspectRatio="xMidYMid" fill-rule="evenodd" stroke-width="28.222" stroke-linejoin="round" xmlns="http://www.w3.org/2000/svg" xmlns:ooo="http://xml.openoffice.org/svg/export" xmlns:xlink="http://www.w3.org/1999/xlink" xmlns:presentation="http://sun.com/xmlns/staroffice/presentation" xmlns:smil="http://www.w3.org/2001/SMIL20/" xmlns:anim="urn:oasis:names:tc:opendocument:xmlns:animation:1.0" xmlns:svg="urn:oasis:names:tc:opendocument:xmlns:svg-compatible:1.0" xml:space="preserve">
 <defs class="ClipPathGroup">
  <clipPath id="presentation_clip_path" clipPathUnits="userSpaceOnUse">
   <rect x="0" y="0" width="35277" height="35277"/>
  </clipPath>
  <clipPath id="presentation_clip_path_shrink" clipPathUnits="userSpaceOnUse">
   <rect x="35" y="35" width="35207" height="35207"/>
  </clipPath>
 </defs>
 <defs class="TextShapeIndex">
  <g ooo:slide="id1" ooo:id-list="id3 id4 id5 id6 id7 id8 id9 id10 id11 id12 id13 id14 id15 id16 id17 id18 id19 id20 id21 id22 id23 id24"/>
 </defs>
 <defs class="EmbeddedBulletChars">
  <g id="bullet-char-template-57356" transform="scale(0.00048828125,-0.00048828125)">
   <path d="M 580,1141 L 1163,571 580,0 -4,571 580,1141 Z"/>
  </g>
  <g id="bullet-char-template-57354" transform="scale(0.00048828125,-0.00048828125)">
   <path d="M 8,1128 L 1137,1128 1137,0 8,0 8,1128 Z"/>
  </g>
  <g id="bullet-char-template-10146" transform="scale(0.00048828125,-0.00048828125)">
   <path d="M 174,0 L 602,739 174,1481 1456,739 174,0 Z M 1358,739 L 309,1346 659,739 1358,739 Z"/>
  </g>
  <g id="bullet-char-template-10132" transform="scale(0.00048828125,-0.00048828125)">
   <path d="M 2015,739 L 1276,0 717,0 1260,543 174,543 174,936 1260,936 717,1481 1274,1481 2015,739 Z"/>
  </g>
  <g id="bullet-char-template-10007" transform="scale(0.00048828125,-0.00048828125)">
   <path d="M 0,-2 C -7,14 -16,27 -25,37 L 356,567 C 262,823 215,952 215,954 215,979 228,992 255,992 264,992 276,990 289,987 310,991 331,999 354,1012 L 381,999 492,748 772,1049 836,1024 860,1049 C 881,1039 901,1025 922,1006 886,937 835,863 770,784 769,783 710,716 594,584 L 774,223 C 774,196 753,168 711,139 L 727,119 C 717,90 699,76 672,76 641,76 570,178 457,381 L 164,-76 C 142,-110 111,-127 72,-127 30,-127 9,-110 8,-76 1,-67 -2,-52 -2,-32 -2,-23 -1,-13 0,-2 Z"/>
  </g>
  <g id="bullet-char-template-10004" transform="scale(0.00048828125,-0.00048828125)">
   <path d="M 285,-33 C 182,-33 111,30 74,156 52,228 41,333 41,471 41,549 55,616 82,672 116,743 169,778 240,778 293,778 328,747 346,684 L 369,508 C 377,444 397,411 428,410 L 1163,1116 C 1174,1127 1196,1133 1229,1133 1271,1133 1292,1118 1292,1087 L 1292,965 C 1292,929 1282,901 1262,881 L 442,47 C 390,-6 338,-33 285,-33 Z"/>
  </g>
  <g id="bullet-char-template-9679" transform="scale(0.00048828125,-0.00048828125)">
   <path d="M 813,0 C 632,0 489,54 383,161 276,268 223,411 223,592 223,773 276,916 383,1023 489,1130 632,1184 813,1184 992,1184 1136,1130 1245,1023 1353,916 1407,772 1407,592 1407,412 1353,268 1245,161 1136,54 992,0 813,0 Z"/>
  </g>
  <g id="bullet-char-template-8226" transform="scale(0.00048828125,-0.00048828125)">
   <path d="M 346,457 C 273,457 209,483 155,535 101,586 74,649 74,723 74,796 101,859 155,911 209,963 273,989 346,989 419,989 480,963 531,910 582,859 608,796 608,723 608,648 583,586 532,535 482,483 420,457 346,457 Z"/>
  </g>
  <g id="bullet-char-template-8211" transform="scale(0.00048828125,-0.00048828125)">
   <path d="M -4,459 L 1135,459 1135,606 -4,606 -4,459 Z"/>
  </g>
  <g id="bullet-char-template-61548" transform="scale(0.00048828125,-0.00048828125)">
   <path d="M 173,740 C 173,903 231,1043 346,1159 462,1274 601,1332 765,1332 928,1332 1067,1274 1183,1159 1299,1043 1357,903 1357,740 1357,577 1299,437 1183,322 1067,206 928,148 765,148 601,148 462,206 346,322 231,437 173,577 173,740 Z"/>
  </g>
 </defs>
 <g>
  <g id="id2" class="Master_Slide">
   <g id="bg-id2" class="Background"/>
   <g id="bo-id2" class="BackgroundObjects"/>
  </g>
 </g>
 <g class="SlideGroup">
  <g>
   <g id="container-id1">
    <g id="id1" class="Slide" clip-path="url(#presentation_clip_path)">
     <g class="Page">
      <g class="com.sun.star.drawing.ClosedBezierShape">
       <g id="id3">
        <rect class="BoundingBox" stroke="none" fill="none" x="1736" y="1728" width="31807" height="31806"/>
        <path fill="rgb(0,0,0)" stroke="none" d="M 33218,17631 C 33218,15527 32807,13487 31994,11566 31210,9711 30086,8045 28656,6614 27225,5183 25559,4060 23703,3275 21783,2463 19743,2051 17639,2051 15535,2051 13495,2463 11574,3275 9719,4060 8053,5183 6622,6614 5192,8045 4068,9711 3284,11566 2471,13487 2059,15527 2059,17631 2059,19735 2471,21775 3284,23695 4068,25550 5192,27217 6622,28647 8053,30078 9719,31201 11574,31986 13495,32798 15535,33210 17639,33210 19743,33210 21783,32798 23703,31986 25559,31201 27225,30078 28656,28647 30086,27217 31210,25550 31994,23695 32807,21775 33218,19735 33218,17631 Z M 32292,11440 C 33121,13401 33542,15484 33542,17631 33542,19778 33121,21860 32292,23821 31491,25715 30344,27415 28884,28876 27423,30336 25723,31483 23829,32284 21868,33113 19786,33533 17639,33533 15492,33533 13409,33113 11449,32284 9555,31483 7854,30336 6394,28876 4933,27415 3787,25715 2986,23821 2157,21860 1736,19778 1736,17631 1736,15484 2157,13401 2986,11440 3787,9547 4933,7846 6394,6386 7854,4925 9555,3779 11449,2978 13409,2149 15492,1728 17639,1728 19786,1728 21868,2149 23829,2978 25723,3779 27423,4925 28884,6386 30344,7846 31491,9547 32292,11440 Z"/>
       </g>
      </g>
      <g class="com.sun.star.drawing.ClosedBezierShape">
       <g id="id4">
        <rect class="BoundingBox" stroke="none" fill="none" x="2059" y="2050" width="31160" height="31161"/>
        <path fill="rgb(20,156,238)" stroke="none" d="M 31994,11566 C 32807,13487 33218,15527 33218,17631 33218,19735 32807,21775 31994,23695 31210,25550 30086,27217 28656,28647 27225,30078 25559,31201 23703,31986 21783,32798 19743,33210 17639,33210 15535,33210 13495,32798 11574,31986 9719,31201 8053,30078 6622,28647 5192,27217 4068,25550 3284,23695 2471,21775 2059,19735 2059,17631 2059,15527 2471,13487 3284,11566 4068,9711 5192,8045 6622,6614 8053,5183 9719,4060 11574,3275 13495,2463 15535,2051 17639,2051 19743,2051 21783,2463 23703,3275 25559,4060 27225,5183 28656,6614 30086,8045 31210,9711 31994,11566 Z"/>
       </g>
      </g>
      <g class="com.sun.star.drawing.ClosedBezierShape">
       <g id="id5">
        <rect class="BoundingBox" stroke="none" fill="none" x="11237" y="11192" width="12815" height="13886"/>
        <path fill="rgb(0,0,0)" stroke="none" d="M 24049,11376 C 24049,11338 24046,11300 24047,11262 24049,11215 24030,11191 23981,11193 23949,11194 23916,11193 23884,11193 21805,11193 19726,11193 17645,11193 L 17645,11192 C 15546,11192 13446,11192 11346,11192 11238,11192 11238,11193 11238,11308 11238,13079 11239,14851 11237,16623 11236,17407 11235,18192 11340,18972 11406,19463 11512,19945 11674,20414 11873,20991 12184,21505 12548,21989 13144,22778 13852,23448 14682,23988 15442,24484 16258,24844 17153,25013 17327,25046 17508,25088 17682,25074 18335,25020 18956,24832 19553,24565 20301,24230 20975,23781 21588,23237 22214,22682 22745,22048 23181,21334 23542,20740 23748,20090 23878,19413 24004,18755 24045,18089 24047,17421 24052,15406 24049,13391 24049,11376 Z"/>
       </g>
      </g>
      <g class="com.sun.star.drawing.ClosedBezierShape">
       <g id="id6">
        <rect class="BoundingBox" stroke="none" fill="none" x="21749" y="14766" width="3726" height="4166"/>
        <path fill="rgb(255,255,255)" stroke="none" d="M 25020,16851 C 24988,15937 23670,15903 23559,16791 23445,17861 25019,17908 25020,16851 Z M 25438,16452 C 25801,18424 23303,19765 21953,18329 21927,18301 21902,18272 21877,18243 21877,18242 21877,18242 21876,18242 21864,18227 21851,18211 21838,18195 21836,18194 21835,18193 21833,18191 21831,18189 21830,18188 21828,18186 21828,18185 21827,18183 21826,18182 21826,18181 21825,18180 21824,18178 21823,18175 21821,18171 21820,18166 L 21820,18165 21820,18164 C 21820,18164 21820,18163 21819,18163 21819,18161 21819,18160 21819,18159 21819,18158 21819,18157 21818,18156 21818,18154 21818,18152 21818,18150 21818,18145 21817,18141 21817,18136 L 21817,18134 21817,18130 C 21817,18127 21818,18125 21818,18122 21818,18121 21818,18119 21818,18118 21818,18114 21819,18109 21820,18103 21821,18096 21822,18090 21823,18083 21852,17923 21977,17646 21947,17518 21980,16920 21948,16305 21749,15731 22108,15131 22668,14826 23245,14774 23305,14769 23365,14766 23425,14766 24337,14766 25244,15382 25438,16452 Z"/>
       </g>
      </g>
      <g class="com.sun.star.drawing.ClosedBezierShape">
       <g id="id7">
        <rect class="BoundingBox" stroke="none" fill="none" x="16873" y="19456" width="8740" height="2516"/>
        <path fill="rgb(214,107,73)" stroke="none" d="M 25396,20193 C 25746,20217 25731,20811 24895,20944 24483,21073 23935,21185 23320,21262 23178,21280 23032,21295 22883,21309 22436,21350 21965,21372 21493,21368 21443,21367 21393,21366 21343,21365 21228,21363 21113,21358 20998,21352 20985,21352 20971,21351 20956,21350 20747,21337 20376,21297 20156,21272 L 20155,21272 C 20127,21269 20100,21266 20077,21264 20033,21258 20001,21255 19986,21253 19982,21252 19979,21252 19977,21251 19967,21250 19957,21248 19947,21247 19915,21242 19882,21236 19850,21231 19825,21227 19799,21222 19773,21217 19754,21214 19736,21211 19717,21207 19709,21206 19702,21204 19695,21203 19664,21197 19634,21191 19604,21185 19569,21178 19534,21170 19499,21162 19473,21157 19447,21151 19422,21145 19391,21138 19360,21130 19330,21123 19279,21110 19228,21097 19178,21083 19162,21079 19147,21074 19131,21070 19109,21064 19088,21057 19066,21051 19052,21047 19037,21042 19023,21038 19021,21037 19019,21036 19018,21036 19010,21034 19003,21031 18996,21029 18989,21027 18981,21025 18974,21022 18955,21016 18935,21010 18916,21003 18903,20999 18889,20995 18876,20990 18855,20983 18835,20976 18814,20968 18789,20959 18764,20950 18739,20940 18731,20937 18722,20934 18713,20931 18712,20930 18711,20930 18710,20929 18708,20929 18707,20928 18706,20927 18702,20926 18697,20925 18693,20923 18691,20922 18689,20921 18686,20920 18684,20919 18680,20918 18678,20916 18649,20905 18621,20894 18593,20882 18587,20879 18581,20877 18575,20874 18557,20867 18539,20859 18522,20851 18505,20844 18489,20836 18472,20828 18456,20821 18440,20813 18424,20806 18405,20796 18386,20787 18367,20777 18357,20773 18348,20768 18339,20763 18320,20753 18301,20743 18283,20733 18283,20733 18282,20733 18282,20732 18046,20605 17842,20454 17678,20279 17650,20250 17624,20220 17598,20189 17539,20133 17480,19922 17394,19958 17370,19969 17360,19991 17373,20010 17393,20040 17414,20068 17435,20097 17731,20489 18144,20781 18630,20993 18631,20994 18631,20994 18631,20994 18683,21017 18736,21039 18790,21059 18801,21064 18811,21068 18822,21072 18857,21085 18892,21098 18928,21110 18938,21114 18948,21118 18958,21121 18980,21129 19002,21136 19024,21143 19035,21147 19047,21151 19058,21154 19069,21158 19080,21161 19091,21165 19120,21174 19149,21183 19178,21191 19207,21200 19236,21208 19266,21216 19280,21220 19293,21224 19307,21228 19322,21232 19337,21236 19352,21240 19379,21247 19406,21253 19434,21260 19466,21268 19499,21276 19531,21283 19566,21291 19601,21299 19636,21306 19654,21310 19672,21314 19690,21317 19706,21320 19721,21323 19736,21326 19741,21327 19746,21328 19751,21329 19783,21335 19816,21341 19849,21347 19866,21350 19883,21353 19900,21356 19915,21359 19930,21362 19945,21365 19949,21365 19953,21366 19957,21367 20008,21375 20059,21383 20110,21390 20133,21393 20156,21396 20179,21399 20208,21403 20237,21407 20265,21410 20474,21435 20686,21453 20900,21464 21017,21470 21134,21474 21252,21476 21281,21477 21311,21477 21341,21477 21838,21483 22340,21456 22821,21407 22972,21392 23121,21374 23267,21354 23943,21265 24564,21138 25058,21004 25239,20947 25418,21241 25286,21377 25049,21633 24694,21685 24380,21780 23896,21833 23398,21886 22894,21924 22887,21924 22879,21925 22872,21926 22645,21939 21390,21988 20842,21964 20827,21963 20812,21962 20798,21961 20784,21961 20770,21960 20756,21959 20687,21954 20558,21945 20473,21938 20456,21936 20438,21935 20421,21933 20199,21913 19978,21885 19760,21848 19689,21837 19617,21824 19546,21810 18935,21691 18343,21501 17787,21212 16958,20723 16785,20183 16909,19832 16921,19798 16936,19766 16953,19735 17034,19595 17168,19498 17322,19467 17477,19435 17654,19470 17817,19594 17892,19651 17965,19727 18032,19824 18304,20082 18643,20280 19026,20427 L 19027,20427 C 19093,20453 19161,20477 19230,20499 L 19230,20500 C 19887,20715 20653,20800 21424,20807 21533,20808 21641,20807 21750,20805 21935,20801 22118,20794 22300,20783 22333,20781 22365,20779 22397,20776 22675,20757 22949,20731 23211,20699 23348,20682 23481,20664 23612,20645 23915,20600 24199,20550 24454,20498 24687,20458 24897,20346 25118,20268 25219,20212 25308,20189 25383,20192 25387,20192 25392,20192 25396,20193 Z"/>
       </g>
      </g>
      <g class="com.sun.star.drawing.ClosedBezierShape">
       <g id="id8">
        <rect class="BoundingBox" stroke="none" fill="none" x="21715" y="14492" width="3579" height="1294"/>
        <path fill="rgb(20,156,238)" stroke="none" d="M 24568,14845 C 24883,15089 25178,15392 25292,15785 25032,15295 24604,14968 24124,14810 24012,14773 23898,14746 23782,14727 23664,14709 23545,14700 23425,14701 23364,14701 23302,14704 23240,14710 23120,14720 23001,14741 22884,14772 22761,14805 22641,14850 22525,14905 22435,14948 22349,14997 22266,15054 22058,15195 21875,15380 21728,15608 21634,15420 22102,15007 22249,14892 22255,14888 22260,14884 22266,14880 22348,14818 22435,14764 22525,14718 22640,14658 22761,14610 22884,14574 23175,14489 23485,14470 23782,14519 23898,14538 24013,14568 24124,14609 24280,14666 24430,14744 24568,14845 Z"/>
       </g>
      </g>
      <g class="com.sun.star.drawing.ClosedBezierShape">
       <g id="id9">
        <rect class="BoundingBox" stroke="none" fill="none" x="21354" y="13744" width="3744" height="1682"/>
        <path fill="rgb(20,156,238)" stroke="none" d="M 24123,14016 C 24566,14284 24914,14721 25097,15204 24823,14873 24485,14645 24123,14519 24011,14480 23896,14451 23781,14431 23482,14380 23176,14396 22884,14476 22761,14510 22641,14555 22525,14613 22436,14656 22349,14707 22266,14764 22026,14928 21813,15149 21643,15424 21595,15283 21287,14864 21369,14774 21374,14763 21380,14753 21387,14742 21578,14412 21906,14145 22266,13971 22351,13930 22438,13894 22525,13863 22645,13821 22766,13790 22884,13770 23023,13746 23158,13738 23283,13748 23455,13758 23622,13794 23781,13852 23900,13895 24014,13950 24123,14016 Z"/>
       </g>
      </g>
      <g class="com.sun.star.drawing.ClosedBezierShape">
       <g id="id10">
        <rect class="BoundingBox" stroke="none" fill="none" x="23553" y="16144" width="1468" height="1478"/>
        <path fill="rgb(0,0,0)" stroke="none" d="M 23559,16791 C 23670,15903 24988,15937 25020,16851 25019,17909 23445,17862 23559,16791 Z"/>
       </g>
      </g>
      <g class="com.sun.star.drawing.ClosedBezierShape">
       <g id="id11">
        <rect class="BoundingBox" stroke="none" fill="none" x="23665" y="19943" width="162" height="166"/>
        <path fill="rgb(0,0,0)" stroke="none" d="M 23813,20034 C 23828,20061 23831,20084 23815,20101 23807,20106 23800,20108 23792,20108 23758,20107 23734,20054 23721,20028 23705,20000 23686,19977 23665,19958 L 23733,19943 C 23767,19974 23797,20006 23813,20034 Z"/>
       </g>
      </g>
      <g class="com.sun.star.drawing.ClosedBezierShape">
       <g id="id12">
        <rect class="BoundingBox" stroke="none" fill="none" x="23110" y="19166" width="1603" height="794"/>
        <path fill="rgb(0,0,0)" stroke="none" d="M 24620,19201 C 24634,19189 24648,19177 24662,19166 L 24711,19228 C 24698,19238 24684,19250 24670,19261 24507,19397 24269,19587 23897,19694 23786,19726 23663,19751 23527,19765 23524,19776 23521,19788 23518,19799 23579,19826 23667,19884 23734,19944 L 23666,19959 C 23619,19917 23561,19894 23498,19877 23370,19842 23224,19836 23120,19762 23046,19652 23430,19704 23497,19670 23515,19669 23533,19667 23551,19665 23677,19649 23801,19621 23921,19583 24174,19501 24412,19369 24620,19201 Z"/>
       </g>
      </g>
      <g class="com.sun.star.drawing.ClosedBezierShape">
       <g id="id13">
        <rect class="BoundingBox" stroke="none" fill="none" x="20543" y="13512" width="2324" height="1266"/>
        <path fill="rgb(20,156,238)" stroke="none" d="M 22526,13575 C 22641,13602 22754,13640 22865,13688 22751,13711 22637,13741 22526,13778 22438,13807 22351,13841 22267,13880 21875,14057 21533,14332 21320,14714 21313,14726 21306,14739 21300,14751 21283,14781 21265,14787 21246,14754 21075,14495 20841,14266 20569,14118 20541,14105 20533,14103 20563,14077 20870,13795 21255,13624 21653,13535 21859,13507 22065,13504 22267,13528 22354,13538 22440,13554 22526,13575 Z"/>
       </g>
      </g>
      <g class="com.sun.star.drawing.ClosedBezierShape">
       <g id="id14">
        <rect class="BoundingBox" stroke="none" fill="none" x="19935" y="19417" width="1723" height="782"/>
        <path fill="rgb(0,0,0)" stroke="none" d="M 21620,19420 C 21636,19435 21668,19451 21651,19480 21506,19739 21174,19811 20913,19879 20681,19903 20452,19962 20223,20010 20063,20041 20052,20190 19984,20197 19820,20174 20110,19934 20193,19931 20613,19814 21079,19800 21456,19572 21524,19554 21560,19392 21620,19420 Z"/>
       </g>
      </g>
      <g class="com.sun.star.drawing.ClosedBezierShape">
       <g id="id15">
        <rect class="BoundingBox" stroke="none" fill="none" x="17818" y="14994" width="4009" height="4263"/>
        <path fill="rgb(255,255,255)" stroke="none" d="M 20694,18017 C 21394,17975 21654,16948 21053,16586 19950,15981 19379,18005 20694,18017 Z M 19186,15171 C 21316,14251 22555,17142 21358,18541 21335,18567 21311,18593 21287,18619 20919,19001 20351,19255 19546,19255 19407,19238 19276,19209 19153,19168 19031,19127 18916,19074 18809,19013 17681,18360 17457,16617 18442,15628 18457,15616 18473,15603 18488,15592 18493,15588 18497,15585 18502,15581 18514,15571 18527,15562 18540,15552 18547,15547 18554,15541 18562,15536 18585,15519 18608,15503 18630,15487 18651,15472 18672,15458 18693,15444 18704,15436 18715,15429 18726,15422 18732,15418 18738,15414 18743,15410 18749,15407 18754,15403 18760,15400 18771,15392 18782,15385 18793,15379 18804,15372 18814,15366 18825,15359 18848,15345 18870,15332 18893,15319 18904,15312 18915,15306 18926,15300 18942,15291 18958,15282 18975,15273 18986,15267 18997,15261 19008,15255 19020,15249 19032,15243 19044,15237 19051,15234 19058,15230 19065,15227 19105,15207 19146,15188 19186,15171 Z"/>
       </g>
      </g>
      <g class="com.sun.star.drawing.ClosedBezierShape">
       <g id="id16">
        <rect class="BoundingBox" stroke="none" fill="none" x="19934" y="16473" width="1457" height="1547"/>
        <path fill="rgb(0,0,0)" stroke="none" d="M 21053,16586 C 21655,16948 21395,17976 20694,18018 19378,18006 19950,15980 21053,16586 Z"/>
       </g>
      </g>
      <g class="com.sun.star.drawing.ClosedBezierShape">
       <g id="id17">
        <rect class="BoundingBox" stroke="none" fill="none" x="19132" y="18619" width="2197" height="720"/>
        <path fill="rgb(0,0,0)" stroke="none" d="M 21327,18656 C 20735,19275 19875,19483 19132,19235 L 19153,19168 C 19276,19209 19407,19238 19546,19255 20351,19255 20920,19002 21288,18619 L 21327,18656 Z"/>
       </g>
      </g>
      <g class="com.sun.star.drawing.ClosedBezierShape">
       <g id="id18">
        <rect class="BoundingBox" stroke="none" fill="none" x="12921" y="12985" width="12478" height="10431"/>
        <path fill="rgb(20,156,238)" stroke="none" d="M 21652,19481 C 21506,19740 21176,19812 20915,19879 20683,19903 20454,19962 20225,20010 20065,20041 20054,20190 19986,20197 19822,20174 20112,19934 20195,19931 20615,19815 21081,19801 21458,19573 21525,19555 21561,19393 21621,19421 21637,19436 21669,19452 21652,19481 Z M 24711,19229 C 24698,19240 24684,19251 24670,19263 24506,19398 24269,19587 23897,19694 23786,19726 23663,19751 23527,19765 23524,19777 23521,19788 23518,19799 23579,19826 23667,19884 23733,19944 23768,19975 23797,20007 23813,20035 23828,20062 23831,20085 23815,20101 23807,20106 23799,20108 23792,20108 23759,20107 23735,20055 23722,20029 23706,20001 23687,19978 23666,19959 23619,19918 23561,19894 23497,19877 23370,19843 23224,19836 23121,19762 23047,19652 23430,19704 23496,19670 23515,19669 23533,19667 23551,19665 23676,19649 23801,19622 23921,19583 24174,19501 24412,19370 24620,19202 24634,19190 24648,19179 24662,19167 25095,18798 25387,18264 25397,17686 25164,18316 24633,18759 24028,18954 23911,18991 23791,19019 23670,19038 23408,19078 23141,19072 22885,19015 22732,18982 22583,18930 22442,18858 22358,18816 22277,18767 22199,18711 22056,18609 21925,18483 21811,18332 21798,18314 21776,18296 21764,18323 21400,19098 20637,19640 19776,19650 19297,19608 18798,19470 18444,19118 18409,19064 18126,18876 18275,18844 19292,20024 21222,19606 21722,18157 21736,18117 21748,18077 21760,18036 21759,18035 21758,18035 21757,18033 21739,18070 21720,18106 21701,18141 21615,18301 21515,18444 21404,18573 21379,18602 21354,18630 21327,18657 20736,19275 19876,19483 19133,19235 19009,19193 18889,19140 18774,19073 18403,18859 18085,18513 17878,18027 17658,18274 17350,18441 17022,18538 17000,18545 16966,18556 16954,18518 16941,18405 17140,18419 17215,18369 17243,18360 17270,18350 17297,18340 17298,18339 17299,18339 17299,18339 17307,18336 17314,18333 17321,18330 17331,18326 17341,18322 17351,18317 17353,18316 17355,18315 17357,18314 17367,18310 17377,18305 17386,18301 17394,18297 17402,18293 17409,18289 17415,18286 17421,18283 17427,18279 17433,18276 17440,18272 17447,18268 17456,18264 17465,18258 17473,18253 17478,18251 17482,18248 17486,18246 17493,18241 17500,18237 17506,18232 17514,18228 17521,18223 17528,18219 17552,18202 17575,18185 17598,18167 17604,18162 17611,18157 17617,18151 17624,18146 17630,18141 17637,18135 17640,18132 17643,18130 17646,18127 17654,18120 17662,18113 17670,18105 17676,18100 17681,18095 17686,18089 17691,18085 17696,18080 17701,18075 17706,18070 17712,18064 17717,18059 17726,18049 17735,18040 17743,18030 17744,18030 17744,18030 17744,18029 17755,18017 17766,18005 17776,17992 17786,17979 17796,17966 17806,17953 17816,17940 17826,17926 17835,17913 17697,17517 17704,17076 17776,16665 17682,16754 17599,16850 17487,16920 17484,16921 17481,16923 17478,16924 17475,16926 17471,16928 17468,16929 17448,16940 17420,16955 17389,16971 17385,16973 17381,16975 17377,16978 17312,17011 17232,17052 17155,17086 17145,17091 17135,17095 17125,17099 17116,17103 17106,17107 17097,17110 17096,17111 17096,17111 17095,17111 16995,17150 16908,17170 16880,17136 16948,17108 17012,17079 17071,17050 17097,17037 17122,17025 17147,17012 L 17156,17007 C 17167,17000 17179,16994 17190,16988 17216,16974 17241,16959 17265,16944 17289,16930 17313,16915 17335,16900 17346,16893 17357,16885 17368,16877 17379,16870 17390,16862 17400,16855 17411,16847 17421,16840 17431,16832 17451,16817 17470,16802 17489,16787 17507,16771 17525,16756 17543,16740 17600,16688 17651,16636 17695,16582 17702,16575 17708,16567 17714,16560 17720,16552 17726,16545 17732,16537 17744,16522 17755,16507 17766,16492 17771,16484 17777,16477 17782,16469 17793,16454 17803,16439 17813,16423 17818,16416 17823,16408 17828,16400 17853,16362 17876,16324 17898,16285 17903,16276 17908,16266 17914,16257 17921,16244 17928,16231 17935,16218 17940,16209 17944,16201 17949,16192 17955,16180 17961,16169 17968,16157 17986,16122 18005,16087 18023,16052 18036,16028 18048,16005 18061,15982 18066,15974 18070,15965 18075,15957 18083,15942 18092,15926 18101,15911 18125,15869 18151,15826 18179,15784 18196,15758 18214,15733 18233,15708 18238,15700 18244,15693 18250,15685 18269,15660 18289,15634 18311,15608 18337,15579 18364,15549 18393,15520 18517,15394 18679,15272 18902,15156 18952,15129 19005,15103 19062,15077 19144,15040 19234,15003 19331,14967 20239,14699 21229,15144 21685,15978 21365,14843 19879,14368 18891,14950 18843,14978 18796,15009 18750,15042 18730,15057 18708,15073 18688,15090 18540,15190 18422,15321 18314,15461 18290,15493 18266,15525 18243,15558 18202,15616 18161,15676 18121,15734 17902,16052 17683,16362 17279,16472 17216,16483 17056,16592 17022,16520 17012,16492 17016,16468 17055,16454 17429,16347 17653,16202 17839,15981 17846,15973 17853,15964 17860,15956 17870,15942 17881,15929 17892,15915 17897,15907 17903,15900 17909,15892 17923,15872 17938,15852 17952,15831 17968,15808 17983,15784 17999,15760 18016,15733 18034,15705 18051,15676 18068,15647 18085,15617 18102,15586 18120,15556 18137,15524 18155,15492 18156,15491 18156,15491 18156,15490 18157,15490 18157,15489 18157,15489 18179,15457 18202,15426 18227,15396 18356,15231 18505,15093 18667,14980 18714,14948 18762,14917 18811,14889 19679,14387 20854,14562 21521,15402 20955,13995 19659,13637 18653,14167 18685,14143 18720,14119 18756,14094 19168,13816 19660,13802 20003,13897 L 20004,13897 C 20007,13898 20014,13900 20024,13903 20026,13904 20029,13905 20032,13906 20039,13908 20047,13911 20055,13913 20058,13914 20061,13915 20064,13916 20071,13919 20078,13921 20086,13923 20089,13924 20092,13925 20095,13926 20191,13958 20343,14012 20459,14070 20470,14069 20480,14065 20489,14056 20531,14044 20564,14000 20600,13971 21045,13586 21654,13405 22242,13449 L 22242,13109 C 22242,12985 22241,12985 22116,12985 20774,12985 19433,12985 18090,12985 16413,12985 14736,12985 13059,12986 12924,12986 12925,12986 12925,13113 12925,13947 12926,14781 12921,15616 12921,15636 12922,15655 12925,15672 12925,15672 12924,16772 12924,16774 L 12924,16823 C 12925,16890 12925,16958 12925,17025 12925,17626 12923,18226 13012,18824 13036,18989 13067,19151 13106,19310 13229,19821 13430,20301 13737,20741 13798,20828 13860,20913 13924,20996 14093,21217 14274,21425 14468,21619 14517,21685 14795,21970 14877,22038 14966,22111 15056,22183 15150,22251 15242,22320 15338,22386 15436,22450 15463,22468 15491,22485 15519,22502 16140,22870 16870,23109 17578,23239 L 17579,23239 C 17838,23287 18093,23320 18340,23340 18396,23347 18452,23352 18508,23358 18578,23365 18648,23371 18720,23377 19508,23441 20324,23427 21116,23298 21296,23269 21474,23234 21651,23193 21710,23179 21769,23165 21827,23149 21990,23107 22152,23058 22312,23004 22362,22987 22413,22969 22463,22951 22492,22940 22520,22929 22549,22919 22601,22899 22653,22878 22704,22857 22911,22771 23114,22674 23310,22564 23359,22537 23407,22509 23456,22480 23503,22452 23551,22423 23597,22393 23644,22363 23691,22332 23738,22300 23809,22252 23878,22202 23947,22150 23969,22133 23992,22116 24014,22098 24080,22046 24146,21993 24210,21937 24210,21936 24212,21936 24212,21935 24210,21931 24207,21928 24204,21924 23755,21961 23289,22002 22814,22034 22660,22044 22504,22053 22349,22061 21798,22088 21240,22096 20691,22063 20643,22060 20595,22057 20547,22053 20467,22047 20386,22040 20306,22033 19275,21932 18284,21667 17438,21092 16780,20602 16678,20105 16830,19774 16845,19742 16862,19711 16881,19682 16980,19534 17134,19430 17307,19393 17423,19368 17548,19373 17670,19414 17805,19460 17936,19551 18047,19697 18271,19864 18495,20032 18720,20199 18808,20244 18900,20286 18995,20325 19685,20606 20567,20730 21470,20742 21577,20743 21684,20743 21792,20741 21993,20738 22194,20730 22393,20716 22681,20697 22966,20668 23241,20630 23377,20611 23511,20591 23641,20568 24230,20465 24756,20324 25157,20160 25256,20118 25214,19856 25198,19774 25030,18990 24966,19019 24711,19229 Z"/>
       </g>
      </g>
      <g class="com.sun.star.drawing.ClosedBezierShape">
       <g id="id19">
        <rect class="BoundingBox" stroke="none" fill="none" x="12869" y="12932" width="12587" height="10536"/>
        <path fill="rgb(0,0,0)" stroke="none" d="M 23197,19746 C 23240,19740 23305,19738 23345,19738 23406,19736 23449,19735 23481,19729 L 23475,19752 23471,19769 23467,19786 23460,19814 C 23437,19809 23414,19804 23392,19800 23321,19786 23253,19772 23197,19746 Z M 19773,19582 C 20012,19582 20253,19540 20481,19461 20257,19546 20020,19594 19778,19597 19708,19591 19641,19583 19575,19573 19640,19579 19706,19582 19773,19582 Z M 18188,15543 L 18189,15543 C 18187,15546 18184,15549 18182,15553 18184,15549 18186,15546 18188,15543 Z M 18209,15506 C 18228,15480 18248,15454 18268,15429 18302,15385 18338,15343 18375,15303 18341,15342 18307,15384 18272,15429 18251,15458 18229,15486 18209,15514 L 18209,15506 Z M 19270,12932 C 18876,12932 18483,12932 18090,12932 16413,12932 14736,12933 13059,12933 12981,12933 12937,12933 12905,12963 12872,12995 12872,13039 12872,13112 12872,13279 12872,13446 12872,13613 12872,14269 12872,14948 12869,15615 12869,15638 12870,15657 12872,15675 12872,15742 12872,16772 12872,16774 L 12872,16823 C 12872,16891 12872,16958 12872,17025 L 12872,17061 C 12872,17642 12872,18242 12959,18832 12984,18999 13016,19164 13054,19322 13187,19870 13396,20345 13694,20772 13753,20856 13816,20942 13882,21028 14053,21251 14237,21462 14428,21654 14486,21729 14760,22009 14843,22078 14931,22152 15024,22224 15118,22294 15212,22363 15309,22430 15407,22494 15437,22514 15468,22533 15490,22547 L 15491,22548 15492,22548 C 16066,22888 16778,23144 17552,23288 L 17556,23292 17574,23292 C 17825,23338 18081,23372 18335,23393 18384,23398 18438,23404 18503,23411 18573,23418 18644,23424 18714,23430 19020,23454 19324,23467 19619,23467 20142,23467 20649,23428 21125,23350 21306,23321 21487,23285 21663,23244 21722,23230 21782,23216 21840,23200 22005,23157 22170,23108 22329,23054 22376,23038 22426,23021 22481,23000 22510,22990 22539,22979 22568,22968 22614,22950 22664,22930 22724,22906 22937,22817 23142,22718 23336,22610 23385,22583 23434,22555 23483,22526 23533,22496 23581,22466 23626,22438 23675,22406 23723,22375 23768,22344 23839,22295 23910,22244 23979,22192 23999,22177 24023,22159 24047,22139 24113,22088 24180,22033 24244,21977 L 24246,21976 C 24247,21974 24249,21973 24250,21972 L 24281,21941 24255,21904 C 24253,21901 24251,21898 24248,21895 24246,21892 24244,21889 24242,21887 L 24224,21869 24200,21871 C 24104,21879 24008,21887 23911,21895 23554,21925 23184,21956 22811,21981 22641,21992 22489,22001 22346,22008 22023,22024 21731,22032 21453,22032 21188,22032 20933,22024 20694,22010 20646,22007 20598,22004 20551,22001 20475,21995 20394,21988 20311,21980 19155,21867 18225,21563 17469,21049 16925,20644 16704,20175 16878,19796 16891,19767 16907,19738 16925,19712 17015,19577 17158,19479 17318,19445 17361,19435 17405,19431 17450,19431 17518,19431 17587,19442 17653,19464 17787,19510 17906,19599 18005,19729 L 18010,19734 18015,19739 18020,19742 C 18239,19906 18465,20075 18688,20241 L 18691,20244 18695,20246 C 18781,20290 18875,20333 18975,20373 19619,20636 20481,20782 21469,20795 21514,20795 21559,20796 21604,20796 21667,20796 21730,20795 21793,20794 21991,20791 22194,20783 22397,20769 22682,20750 22968,20721 23248,20682 23391,20663 23526,20642 23651,20620 24245,20516 24773,20374 25177,20209 25299,20157 25284,19939 25250,19764 25142,19260 25073,19049 24924,19049 24898,19049 24872,19056 24844,19069 25223,18685 25441,18190 25449,17686 L 25455,17375 25347,17667 C 25133,18249 24646,18700 24011,18903 23897,18940 23780,18968 23662,18986 23552,19003 23442,19011 23333,19011 23184,19011 23037,18995 22897,18964 22745,18930 22600,18879 22465,18811 22383,18770 22304,18722 22230,18668 22089,18567 21962,18444 21853,18301 21834,18273 21807,18256 21780,18256 21763,18256 21747,18263 21734,18274 21748,18241 21760,18208 21772,18174 21786,18133 21799,18092 21811,18050 L 21820,18015 21792,17994 21741,17944 21709,18011 C 21692,18046 21673,18082 21655,18116 21573,18269 21475,18410 21364,18538 21340,18567 21315,18593 21289,18620 20886,19042 20331,19284 19767,19284 19555,19284 19347,19251 19149,19185 19028,19144 18911,19091 18800,19027 18420,18807 18118,18454 17926,18007 L 17894,17930 17862,17965 C 17868,17958 17873,17950 17879,17942 L 17893,17920 17885,17895 C 17765,17552 17746,17141 17828,16674 L 17856,16516 17740,16626 C 17717,16648 17695,16670 17674,16691 17612,16753 17553,16811 17483,16859 17496,16849 17509,16838 17522,16827 17540,16813 17559,16796 17578,16779 17636,16727 17688,16674 17736,16616 L 17755,16593 17761,16586 C 17765,16580 17769,16575 17773,16570 17784,16556 17795,16541 17809,16523 17814,16515 17820,16507 17826,16499 17838,16481 17849,16466 17858,16452 17863,16444 17868,16436 17873,16428 17896,16393 17919,16354 17943,16312 17949,16302 17954,16292 17960,16283 L 17971,16263 17981,16243 C 17985,16237 17989,16230 17992,16223 L 17995,16217 18002,16205 C 18006,16198 18010,16190 18014,16182 18024,16164 18033,16146 18042,16129 18051,16111 18061,16094 18070,16077 18082,16053 18095,16030 18107,16007 L 18114,15995 18121,15983 C 18129,15967 18138,15952 18147,15937 18172,15893 18197,15852 18223,15813 18241,15786 18258,15762 18275,15738 L 18280,15732 C 18284,15727 18287,15722 18291,15717 18309,15693 18330,15668 18351,15643 18379,15611 18405,15583 18430,15557 18563,15424 18725,15308 18926,15202 18979,15175 19030,15150 19083,15126 19166,15088 19255,15051 19348,15017 19517,14967 19693,14942 19871,14942 20592,14942 21286,15358 21638,16003 L 21862,16411 21736,15963 C 21678,15760 21584,15573 21457,15406 21464,15415 21472,15425 21479,15434 L 21705,15719 21570,15382 C 21335,14798 20959,14361 20499,14113 20505,14110 20511,14106 20516,14102 20552,14088 20579,14062 20604,14039 20614,14029 20624,14020 20633,14013 L 20633,14012 20634,14011 C 21014,13683 21536,13495 22066,13495 22124,13495 22181,13497 22238,13502 L 22294,13506 22294,13449 22294,13109 C 22294,13037 22294,12994 22263,12963 22231,12933 22190,12933 22116,12933 21167,12932 20218,12932 19270,12932 Z M 19986,20197 C 20054,20190 20065,20041 20225,20010 20454,19962 20683,19903 20915,19879 21176,19812 21507,19740 21652,19481 21669,19452 21637,19436 21621,19421 21616,19419 21612,19418 21607,19418 21555,19418 21519,19557 21458,19573 21081,19801 20615,19815 20195,19931 20112,19934 19822,20174 19986,20197 Z M 19270,12985 C 20218,12985 21167,12985 22116,12985 22241,12985 22242,12985 22242,13109 L 22242,13449 C 22183,13445 22125,13443 22066,13443 21535,13443 21001,13624 20600,13971 20564,14000 20531,14044 20489,14056 20480,14065 20470,14069 20459,14070 20343,14012 20191,13958 20095,13926 20092,13925 20089,13924 20086,13923 20078,13921 20071,13919 20064,13916 20061,13915 20058,13914 20055,13913 20047,13911 20039,13908 20032,13906 20029,13905 20026,13904 20024,13903 20014,13900 20007,13898 20004,13897 20003,13897 20003,13897 20003,13897 19883,13864 19745,13844 19599,13844 19326,13844 19024,13913 18755,14094 18719,14119 18685,14143 18653,14167 18946,14013 19262,13934 19579,13934 20351,13934 21120,14404 21521,15402 21102,14874 20483,14609 19866,14609 19500,14609 19134,14703 18810,14889 18761,14917 18713,14948 18667,14980 18505,15093 18356,15231 18227,15396 18202,15426 18179,15457 18157,15489 18157,15489 18157,15490 18156,15490 18156,15491 18156,15491 18155,15492 18137,15524 18120,15556 18102,15586 18085,15617 18068,15646 18051,15675 18034,15704 18016,15732 17999,15759 17983,15783 17968,15808 17952,15831 17938,15852 17924,15872 17909,15892 17903,15900 17897,15907 17892,15915 17881,15929 17870,15942 17860,15956 17853,15964 17846,15973 17839,15981 17653,16202 17429,16347 17055,16454 17016,16468 17012,16492 17023,16520 17031,16538 17046,16545 17066,16545 17128,16545 17231,16480 17279,16472 17683,16362 17902,16052 18121,15733 18161,15675 18202,15616 18243,15558 18266,15525 18290,15493 18314,15461 18422,15321 18540,15190 18688,15090 18708,15073 18729,15057 18749,15042 18795,15009 18842,14978 18891,14950 19179,14780 19509,14700 19840,14700 20646,14701 21458,15173 21685,15978 21319,15308 20608,14889 19871,14889 19691,14889 19509,14914 19331,14967 19234,15003 19144,15040 19062,15077 19005,15103 18952,15129 18902,15156 18679,15272 18517,15394 18393,15520 18364,15549 18337,15579 18311,15608 18289,15634 18269,15659 18250,15684 18244,15692 18238,15699 18233,15707 18214,15732 18196,15757 18179,15783 18151,15826 18125,15869 18101,15911 18092,15926 18083,15942 18075,15957 18070,15965 18066,15974 18061,15982 18048,16005 18036,16028 18023,16052 18005,16087 17986,16122 17968,16157 17961,16169 17955,16180 17949,16192 17944,16201 17940,16209 17935,16218 17928,16231 17921,16244 17914,16257 17908,16266 17903,16276 17898,16285 17876,16324 17853,16362 17828,16400 17823,16408 17818,16416 17813,16423 17803,16439 17793,16454 17782,16469 17777,16477 17771,16484 17766,16492 17755,16507 17744,16522 17732,16537 17726,16545 17720,16552 17714,16560 17708,16567 17702,16575 17695,16582 17651,16636 17600,16688 17543,16740 17525,16756 17507,16771 17489,16787 17470,16802 17451,16817 17431,16832 17421,16840 17411,16847 17400,16855 17390,16862 17379,16870 17368,16877 17358,16885 17346,16893 17335,16900 17313,16915 17289,16930 17265,16944 17241,16959 17216,16974 17190,16988 17179,16994 17167,17000 17156,17007 L 17147,17012 C 17122,17025 17097,17037 17071,17050 17012,17079 16948,17108 16880,17136 16890,17148 16908,17153 16931,17153 16972,17153 17031,17136 17095,17111 17096,17111 17096,17111 17097,17110 17106,17107 17116,17103 17125,17099 17135,17095 17145,17091 17155,17086 17232,17052 17312,17011 17377,16978 17381,16975 17385,16973 17389,16971 17420,16955 17448,16940 17468,16929 17471,16928 17475,16926 17478,16924 17481,16923 17484,16921 17487,16920 17599,16850 17682,16754 17776,16665 17704,17076 17697,17517 17835,17913 17826,17926 17816,17940 17806,17953 17796,17966 17786,17979 17776,17992 17766,18005 17755,18017 17744,18029 17744,18030 17744,18030 17743,18030 17735,18040 17726,18049 17717,18059 17712,18064 17706,18070 17701,18075 17696,18080 17691,18085 17686,18089 17681,18095 17676,18100 17670,18105 17662,18113 17654,18120 17646,18127 17643,18130 17640,18132 17637,18135 17630,18141 17624,18146 17617,18151 17611,18157 17604,18162 17598,18167 17575,18185 17552,18202 17528,18219 17521,18223 17514,18228 17506,18232 17500,18237 17493,18241 17486,18246 17482,18248 17478,18251 17473,18253 17465,18258 17456,18264 17447,18268 17440,18272 17433,18276 17427,18279 17421,18283 17415,18286 17409,18289 17402,18293 17394,18297 17386,18301 17377,18305 17367,18310 17357,18314 17355,18315 17353,18316 17351,18317 17341,18322 17331,18326 17321,18330 17314,18333 17307,18336 17299,18339 17299,18339 17298,18339 17297,18340 17270,18350 17243,18360 17215,18369 17140,18419 16941,18405 16954,18518 16960,18539 16974,18545 16988,18545 17000,18545 17012,18541 17022,18538 17350,18441 17658,18274 17878,18027 18085,18513 18403,18859 18773,19073 18889,19140 19009,19193 19133,19235 19338,19303 19552,19337 19767,19337 20330,19337 20899,19105 21327,18657 21354,18630 21379,18602 21404,18573 21515,18444 21615,18301 21701,18141 21720,18106 21739,18070 21757,18033 21758,18035 21759,18035 21760,18036 21748,18077 21736,18117 21722,18157 21420,19030 20600,19529 19773,19529 19228,19529 18679,19313 18275,18844 18126,18876 18409,19064 18444,19118 18797,19470 19297,19608 19776,19650 20637,19640 21400,19098 21764,18323 21768,18313 21774,18309 21780,18309 21791,18309 21803,18321 21811,18332 21925,18483 22056,18609 22199,18711 22277,18767 22358,18816 22442,18858 22583,18930 22732,18982 22885,19015 23032,19048 23182,19064 23333,19064 23445,19064 23558,19055 23670,19038 23791,19019 23911,18991 24028,18954 24633,18759 25164,18316 25397,17686 25387,18264 25095,18798 24662,19167 24648,19179 24634,19190 24620,19202 24412,19370 24174,19501 23921,19583 23801,19622 23676,19649 23551,19665 23533,19667 23515,19669 23496,19670 23430,19704 23047,19652 23121,19762 23224,19836 23370,19843 23497,19877 23561,19894 23619,19918 23666,19959 23687,19978 23706,20001 23722,20029 23735,20055 23759,20107 23792,20108 23793,20108 23793,20108 23794,20108 23800,20108 23808,20106 23815,20101 23831,20085 23828,20062 23813,20035 23797,20007 23768,19975 23733,19944 23667,19884 23579,19826 23518,19799 23521,19788 23524,19777 23527,19765 23663,19751 23786,19726 23897,19694 24269,19587 24506,19398 24670,19263 24684,19251 24698,19240 24711,19229 24802,19154 24868,19102 24924,19102 25025,19102 25090,19270 25198,19774 25214,19856 25256,20118 25157,20160 24756,20324 24230,20465 23641,20568 23511,20591 23377,20611 23241,20630 22966,20668 22681,20697 22393,20716 22194,20730 21993,20738 21792,20741 21729,20742 21667,20743 21604,20743 21559,20743 21515,20742 21470,20742 20567,20730 19685,20606 18995,20325 18900,20286 18807,20244 18719,20199 18495,20032 18271,19864 18047,19697 17936,19551 17805,19460 17670,19414 17597,19389 17522,19378 17450,19378 17401,19378 17353,19383 17307,19393 17134,19430 16980,19534 16881,19682 16862,19711 16845,19742 16830,19774 16678,20105 16780,20602 17438,21092 18284,21667 19275,21932 20306,22033 20386,22040 20467,22047 20547,22053 20595,22057 20643,22060 20691,22063 20944,22078 21198,22085 21453,22085 21752,22085 22051,22075 22349,22061 22504,22053 22660,22044 22814,22034 23289,22002 23755,21961 24204,21924 24207,21928 24210,21931 24212,21935 24212,21936 24211,21936 24210,21937 24146,21993 24080,22046 24014,22098 23992,22116 23969,22133 23947,22150 23878,22202 23809,22252 23738,22300 23691,22332 23644,22363 23597,22393 23551,22423 23503,22452 23456,22480 23407,22509 23359,22537 23310,22564 23114,22674 22911,22771 22704,22857 22653,22878 22601,22899 22549,22919 22520,22929 22492,22940 22463,22951 22413,22969 22362,22987 22312,23004 22152,23058 21990,23107 21827,23149 21769,23165 21710,23179 21651,23193 21474,23234 21296,23269 21116,23298 20622,23378 20119,23414 19619,23414 19317,23414 19016,23401 18719,23377 18648,23371 18578,23365 18508,23358 18452,23352 18396,23347 18340,23340 18094,23320 17838,23287 17579,23239 L 17578,23239 C 16870,23109 16140,22870 15519,22502 15491,22485 15463,22468 15436,22450 15338,22386 15242,22320 15150,22251 15056,22183 14966,22111 14877,22038 14795,21970 14517,21685 14468,21619 14274,21425 14093,21217 13924,20996 13860,20913 13798,20828 13737,20741 13430,20301 13229,19821 13106,19310 13067,19151 13036,18989 13012,18824 12923,18226 12925,17626 12925,17025 12925,16958 12925,16890 12924,16823 L 12924,16774 C 12924,16772 12925,15671 12925,15671 12922,15654 12921,15635 12921,15616 12926,14781 12925,13947 12925,13113 12925,12986 12924,12986 13059,12986 14736,12985 16413,12985 18090,12985 18483,12985 18876,12985 19270,12985 Z"/>
       </g>
      </g>
      <g class="com.sun.star.drawing.ClosedBezierShape">
       <g id="id20">
        <rect class="BoundingBox" stroke="none" fill="none" x="16768" y="19392" width="8999" height="3618"/>
        <path fill="rgb(0,0,0)" stroke="none" d="M 18630,20994 C 18144,20782 17731,20490 17435,20098 17414,20069 17393,20041 17373,20011 17360,19992 17370,19970 17394,19959 17480,19923 17539,20134 17598,20190 17624,20221 17650,20251 17678,20280 17842,20455 18046,20606 18282,20733 18282,20734 18283,20734 18283,20734 18301,20744 18320,20754 18339,20764 18348,20769 18357,20774 18367,20778 18386,20788 18405,20797 18424,20807 18440,20814 18456,20822 18472,20829 18489,20837 18505,20845 18522,20852 18539,20860 18557,20868 18575,20875 18581,20878 18587,20880 18593,20883 18621,20895 18649,20906 18677,20917 18680,20919 18684,20920 18686,20921 18689,20922 18691,20923 18693,20924 18697,20926 18702,20927 18706,20928 18707,20929 18708,20930 18710,20930 18711,20931 18712,20931 18713,20932 18722,20935 18731,20938 18739,20941 18764,20951 18789,20960 18814,20969 18835,20977 18855,20984 18876,20991 18889,20996 18903,21000 18916,21004 18935,21011 18955,21017 18974,21023 18981,21026 18989,21028 18996,21030 19003,21032 19010,21035 19018,21037 19019,21038 19021,21038 19023,21039 19037,21043 19052,21048 19066,21052 19088,21058 19109,21065 19131,21071 19147,21075 19162,21080 19178,21084 19228,21098 19279,21111 19330,21124 19360,21131 19391,21139 19422,21146 19447,21152 19473,21158 19499,21163 19534,21171 19569,21179 19604,21186 19634,21192 19664,21198 19695,21204 19702,21205 19709,21207 19717,21208 19736,21212 19754,21215 19773,21218 19799,21223 19825,21228 19850,21232 19882,21237 19915,21243 19947,21248 19957,21249 19967,21251 19977,21252 19979,21253 19982,21253 19986,21254 20001,21256 20033,21260 20077,21265 20100,21267 20127,21270 20155,21274 L 20156,21274 C 20376,21298 20747,21338 20956,21351 20971,21352 20985,21353 20998,21353 21113,21359 21228,21363 21343,21365 21393,21366 21443,21367 21493,21368 21964,21372 22435,21351 22883,21310 23032,21296 23178,21281 23320,21263 23935,21186 24483,21074 24895,20945 25731,20812 25746,20218 25396,20194 L 25398,20129 C 25638,20138 25840,20375 25740,20602 25703,20817 25483,20921 25315,21007 25816,21439 24995,21759 24642,21860 24553,21881 24449,21876 24394,21962 23747,22569 22151,23058 22311,23004 22361,22987 22412,22969 22462,22951 22492,22940 22521,22929 22549,22918 22601,22899 22653,22878 22704,22857 22911,22771 23114,22673 23310,22564 23359,22537 23408,22509 23456,22480 23503,22452 23551,22423 23597,22393 23644,22363 23691,22332 23738,22300 23809,22252 23878,22202 23947,22150 23970,22133 23992,22116 24014,22098 24080,22046 24146,21993 24210,21937 24211,21936 24212,21936 24212,21935 24210,21931 24207,21928 24205,21924 24205,21924 24204,21924 24204,21923 23755,21961 23289,22002 22814,22034 22660,22044 22504,22053 22348,22061 21797,22088 21239,22096 20690,22063 20642,22060 20594,22057 20546,22053 20466,22047 20385,22040 20305,22033 19274,21932 18284,21667 17438,21092 16780,20602 16678,20105 16830,19773 16845,19741 16862,19710 16881,19681 16980,19533 17134,19429 17307,19392 L 17322,19467 C 17168,19498 17034,19595 16953,19735 16936,19766 16921,19798 16909,19832 16785,20184 16958,20724 17787,21213 18343,21501 18935,21691 19546,21810 19617,21824 19689,21837 19760,21848 19978,21885 20199,21913 20421,21933 20438,21935 20456,21936 20473,21938 20558,21945 20687,21954 20756,21959 20770,21960 20784,21961 20798,21961 20812,21962 20827,21963 20842,21964 21390,21988 22645,21939 22872,21926 22879,21925 22887,21924 22894,21924 23398,21886 23896,21833 24380,21780 24694,21685 25049,21633 25286,21377 25418,21242 25239,20948 25058,21005 24564,21139 23943,21266 23267,21355 23121,21374 22972,21392 22821,21407 22339,21456 21838,21483 21341,21477 21311,21477 21281,21477 21252,21476 21134,21474 21017,21470 20900,21464 20686,21453 20474,21435 20265,21410 20237,21407 20208,21403 20179,21399 20156,21396 20133,21393 20110,21390 20059,21383 20008,21375 19957,21367 19953,21366 19949,21365 19945,21365 19930,21362 19915,21360 19899,21357 19883,21354 19866,21351 19849,21348 19816,21342 19783,21336 19751,21330 19746,21329 19741,21328 19736,21327 19721,21324 19706,21321 19690,21318 19672,21315 19654,21311 19636,21307 19601,21300 19566,21292 19531,21284 19499,21277 19466,21269 19434,21261 19406,21254 19379,21248 19352,21240 19337,21237 19322,21233 19307,21229 19293,21225 19280,21221 19266,21217 19236,21209 19207,21201 19178,21192 19149,21184 19120,21175 19091,21166 19080,21162 19069,21159 19058,21155 19047,21152 19035,21148 19024,21144 19002,21137 18980,21130 18958,21122 18948,21119 18938,21115 18928,21111 18892,21099 18857,21086 18822,21073 18811,21069 18801,21065 18790,21060 18736,21040 18683,21018 18631,20995 L 18630,20994 Z"/>
       </g>
      </g>
      <g class="com.sun.star.drawing.ClosedBezierShape">
       <g id="id21">
        <rect class="BoundingBox" stroke="none" fill="none" x="17306" y="19377" width="5092" height="1433"/>
        <path fill="rgb(0,0,0)" stroke="none" d="M 18995,20323 C 19685,20605 20567,20730 21470,20742 21577,20743 21684,20743 21792,20741 21993,20738 22194,20730 22393,20715 L 22397,20777 C 22365,20780 22333,20782 22300,20784 22118,20795 21935,20802 21751,20806 21642,20808 21534,20809 21425,20808 20654,20801 19888,20715 19231,20500 L 19231,20499 C 19162,20477 19094,20453 19028,20427 19027,20427 19027,20427 19027,20427 18644,20280 18305,20082 18033,19824 17966,19727 17893,19651 17818,19594 17654,19470 17477,19435 17322,19467 L 17307,19392 C 17423,19367 17548,19372 17670,19413 17805,19459 17937,19550 18048,19695 18272,19863 18496,20031 18720,20198 18808,20243 18900,20284 18995,20323 Z"/>
       </g>
      </g>
      <g class="com.sun.star.drawing.ClosedBezierShape">
       <g id="id22">
        <rect class="BoundingBox" stroke="none" fill="none" x="16880" y="13442" width="8739" height="7337"/>
        <path fill="rgb(0,0,0)" stroke="none" d="M 22267,13972 C 21907,14146 21578,14412 21387,14742 21380,14753 21374,14763 21369,14774 21287,14864 21595,15283 21643,15424 21813,15149 22027,14928 22267,14764 22350,14707 22437,14656 22526,14613 22642,14555 22762,14510 22885,14476 23177,14396 23483,14380 23782,14431 23897,14451 24012,14480 24124,14519 24485,14645 24823,14873 25097,15204 24914,14721 24566,14284 24124,14017 24015,13951 23901,13896 23782,13853 23623,13795 23456,13759 23284,13749 23159,13739 23024,13747 22885,13770 22767,13791 22646,13822 22526,13864 22439,13895 22352,13931 22267,13972 Z M 22885,14772 C 23002,14741 23121,14720 23240,14710 23302,14704 23364,14701 23425,14701 23545,14700 23664,14709 23782,14727 23898,14746 24012,14773 24124,14810 24604,14967 25032,15294 25292,15784 25178,15391 24883,15088 24568,14845 24430,14744 24280,14666 24124,14609 24013,14568 23898,14538 23782,14519 23485,14470 23176,14489 22885,14574 22762,14610 22641,14658 22526,14718 22436,14764 22349,14818 22267,14879 22261,14883 22256,14887 22250,14891 22103,15006 21634,15419 21728,15607 21876,15379 22059,15194 22267,15053 22350,14996 22436,14947 22526,14904 22642,14849 22762,14805 22885,14772 Z M 20458,14071 C 20469,14070 20479,14066 20488,14056 20530,14045 20563,14001 20599,13972 21044,13587 21653,13405 22242,13450 22242,13450 22414,13482 22500,13500 22622,13524 22741,13560 22857,13606 22932,13635 23005,13669 23076,13708 23318,13711 23542,13750 23749,13818 23868,13857 24112,13949 24124,13956 25645,14771 26013,17330 25186,18781 25159,18854 25045,18930 25052,18997 25144,19157 25240,19320 25273,19504 25322,19631 25343,19778 25348,19917 25366,19981 25301,20114 25383,20130 L 25384,20130 C 25388,20130 25393,20130 25398,20130 L 25396,20195 C 25392,20194 25387,20194 25383,20194 25309,20191 25219,20214 25118,20270 24897,20348 24687,20460 24454,20500 24199,20552 23915,20602 23612,20647 23481,20666 23348,20684 23211,20701 22949,20733 22676,20759 22397,20778 L 22393,20717 C 22682,20698 22966,20669 23241,20631 23377,20612 23511,20592 23641,20569 24230,20466 24757,20325 25157,20161 25256,20119 25214,19857 25198,19775 25030,18991 24966,19020 24711,19230 L 24662,19168 C 25095,18799 25387,18264 25397,17685 25164,18316 24633,18760 24028,18955 23911,18992 23791,19020 23670,19039 23408,19079 23141,19073 22885,19016 22732,18983 22583,18931 22442,18859 22358,18817 22277,18768 22199,18712 22056,18610 21926,18484 21810,18332 21798,18314 21775,18295 21763,18323 21399,19098 20636,19640 19775,19650 19296,19609 18797,19470 18444,19119 18409,19065 18126,18877 18275,18845 19292,20025 21221,19607 21721,18157 21735,18117 21747,18077 21759,18036 21758,18035 21757,18034 21756,18033 21738,18070 21719,18106 21700,18141 21614,18300 21514,18445 21403,18573 21378,18602 21353,18630 21326,18658 L 21287,18621 C 21311,18595 21335,18569 21358,18543 22555,17143 21316,14253 19186,15172 19146,15189 19105,15208 19065,15228 19058,15231 19051,15235 19044,15238 19032,15244 19020,15250 19008,15256 18997,15262 18986,15268 18975,15274 18958,15283 18942,15292 18926,15301 18915,15307 18904,15314 18893,15320 18870,15333 18848,15346 18825,15360 18814,15367 18804,15373 18793,15380 18782,15386 18771,15393 18760,15401 18754,15404 18749,15408 18743,15411 18738,15415 18732,15419 18726,15423 18715,15430 18704,15437 18693,15445 18672,15459 18651,15473 18630,15488 18608,15504 18585,15520 18562,15537 18554,15542 18547,15548 18540,15553 18527,15563 18514,15572 18502,15583 18497,15586 18493,15589 18488,15593 18473,15604 18457,15617 18442,15629 17458,16618 17682,18362 18809,19015 18916,19076 19031,19129 19153,19169 L 19132,19236 C 19009,19194 18888,19140 18773,19074 18404,18860 18085,18514 17878,18027 17658,18274 17350,18441 17022,18539 17000,18546 16966,18557 16954,18519 16941,18406 17140,18420 17215,18370 17243,18361 17270,18351 17297,18341 17298,18340 17299,18340 17300,18340 17307,18337 17314,18333 17321,18330 17331,18326 17341,18322 17351,18317 17353,18316 17355,18315 17357,18314 17367,18310 17377,18305 17386,18300 17394,18297 17402,18293 17409,18289 17415,18286 17421,18283 17427,18279 17433,18276 17440,18272 17447,18268 17456,18264 17465,18258 17473,18253 17478,18251 17482,18248 17486,18246 17493,18241 17500,18237 17506,18232 17514,18228 17521,18223 17528,18218 17552,18202 17575,18185 17598,18167 17604,18162 17611,18157 17617,18151 17624,18146 17631,18141 17637,18135 17640,18132 17643,18130 17646,18127 17654,18120 17662,18113 17670,18105 17676,18100 17681,18095 17687,18089 17692,18085 17696,18080 17701,18075 17706,18070 17712,18064 17717,18058 17726,18049 17735,18040 17743,18030 17744,18030 17744,18029 17744,18029 17755,18017 17766,18005 17776,17992 17786,17979 17796,17966 17806,17953 17816,17940 17826,17926 17835,17912 17697,17516 17704,17076 17776,16665 17682,16754 17599,16850 17487,16920 17484,16921 17481,16922 17478,16924 17475,16926 17471,16928 17468,16929 17448,16940 17420,16954 17389,16971 17385,16973 17381,16975 17377,16977 17312,17011 17232,17052 17155,17086 17145,17090 17135,17095 17126,17099 17116,17103 17107,17107 17097,17110 17096,17110 17096,17111 17095,17111 16995,17150 16908,17170 16880,17136 16948,17108 17012,17079 17071,17050 17097,17037 17122,17024 17147,17011 L 17156,17007 C 17167,17000 17179,16994 17190,16988 17216,16973 17241,16959 17265,16944 17289,16930 17313,16915 17335,16900 17347,16892 17358,16885 17368,16877 17379,16870 17390,16862 17400,16855 17411,16847 17421,16840 17431,16832 17451,16817 17470,16802 17489,16787 17508,16771 17525,16756 17543,16740 17600,16688 17651,16636 17695,16582 17702,16575 17708,16567 17714,16560 17720,16552 17726,16545 17732,16537 17744,16522 17755,16507 17766,16492 17771,16484 17777,16477 17782,16469 17793,16454 17803,16439 17813,16423 17818,16416 17823,16408 17828,16400 17853,16362 17876,16324 17898,16285 17903,16276 17909,16266 17914,16257 17921,16244 17928,16231 17935,16218 17940,16209 17944,16201 17949,16192 17955,16180 17961,16169 17968,16157 17986,16122 18005,16087 18023,16052 18036,16028 18048,16005 18061,15982 18066,15973 18070,15965 18075,15957 18083,15942 18092,15926 18101,15911 18125,15868 18151,15826 18179,15784 18196,15758 18214,15733 18233,15708 18238,15700 18244,15693 18250,15685 18269,15660 18289,15635 18311,15609 18337,15580 18364,15550 18393,15521 18518,15395 18679,15273 18901,15156 18951,15130 19004,15104 19061,15078 19143,15041 19233,15004 19330,14968 20238,14700 21228,15145 21684,15978 21364,14844 19878,14369 18890,14951 18842,14979 18795,15010 18750,15043 18729,15058 18708,15074 18688,15090 18540,15191 18422,15321 18314,15462 18290,15494 18266,15526 18243,15558 18202,15617 18161,15675 18121,15734 17902,16052 17683,16362 17279,16472 17216,16482 17056,16592 17023,16520 17013,16492 17017,16468 17055,16453 17429,16347 17653,16202 17839,15981 17846,15973 17853,15964 17860,15956 17870,15942 17881,15929 17892,15915 17897,15907 17903,15900 17909,15892 17924,15872 17938,15852 17952,15831 17968,15808 17983,15784 17999,15760 18016,15733 18034,15705 18051,15676 18068,15647 18085,15618 18103,15587 18120,15557 18137,15525 18155,15493 18156,15492 18156,15491 18156,15491 18157,15491 18157,15490 18157,15490 18179,15458 18202,15427 18227,15397 18356,15232 18505,15094 18667,14981 18713,14949 18761,14918 18810,14890 19678,14388 20853,14563 21520,15402 20954,13996 19658,13638 18653,14168 18685,14144 18719,14120 18755,14095 19167,13817 19659,13803 20002,13898 L 20003,13898 C 20006,13899 20013,13901 20023,13904 20025,13905 20028,13906 20031,13907 20038,13909 20046,13911 20054,13914 20057,13915 20060,13916 20063,13917 20070,13919 20077,13922 20085,13924 20088,13925 20091,13926 20094,13927 20190,13959 20342,14013 20458,14071 Z M 21320,14714 C 21533,14333 21876,14058 22267,13881 22351,13842 22438,13808 22526,13779 22637,13742 22751,13712 22865,13689 22754,13641 22641,13603 22526,13576 22440,13555 22354,13539 22267,13529 22065,13505 21860,13508 21653,13536 21255,13625 20870,13796 20563,14078 20533,14104 20541,14106 20569,14119 20841,14267 21075,14496 21246,14754 21265,14787 21283,14781 21300,14751 21306,14739 21313,14726 21320,14714 Z M 21948,17519 C 21978,17647 21853,17924 21823,18084 21822,18091 21821,18097 21820,18104 21819,18110 21818,18115 21818,18119 21818,18120 21818,18122 21818,18123 21818,18126 21817,18128 21817,18131 L 21817,18135 21817,18137 C 21817,18142 21818,18146 21818,18151 21818,18153 21818,18155 21818,18157 21819,18158 21819,18159 21819,18160 21819,18161 21819,18162 21819,18164 21820,18164 21820,18165 21820,18165 L 21820,18166 21820,18167 C 21821,18172 21823,18176 21824,18179 21825,18181 21826,18182 21826,18183 21827,18184 21828,18186 21828,18187 21830,18189 21831,18190 21834,18192 21836,18194 21837,18195 21839,18196 21852,18212 21865,18228 21877,18243 21878,18243 21878,18243 21878,18244 21903,18273 21928,18302 21954,18330 23304,19766 25801,18426 25438,16453 25244,15383 24337,14767 23426,14767 23366,14767 23306,14770 23247,14775 22669,14827 22109,15132 21749,15732 21949,16306 21981,16921 21948,17519 Z"/>
       </g>
      </g>
      <g class="com.sun.star.drawing.ClosedBezierShape">
       <g id="id23">
        <rect class="BoundingBox" stroke="none" fill="none" x="11524" y="11458" width="12208" height="13228"/>
        <path fill="rgb(20,45,81)" stroke="none" d="M 23729,11634 C 23729,11598 23726,11561 23727,11525 23729,11480 23711,11457 23664,11459 23633,11460 23603,11459 23572,11459 L 17629,11459 17629,11458 11628,11458 C 11525,11458 11525,11459 11525,11569 11525,13256 11526,14944 11524,16632 11524,17379 11522,18126 11622,18869 11685,19337 11785,19796 11940,20244 12130,20792 12426,21283 12773,21743 13340,22495 14015,23133 14805,23648 15529,24120 16307,24463 17160,24624 17326,24655 17498,24695 17664,24682 18286,24631 18878,24452 19446,24197 19954,23970 20427,23687 20867,23355 20111,23469 19320,23497 18554,23430 18405,23417 18256,23400 18109,23379 16726,23188 15463,22671 14683,21770 L 14682,21770 C 14628,21708 13879,20764 13820,20678 13515,20242 13316,19766 13194,19260 13156,19103 13125,18942 13101,18779 13013,18188 13015,17593 13015,16999 13015,16932 13015,16865 13014,16799 L 13014,16750 C 13014,16748 13014,16745 13015,16742 L 13015,16618 16011,18805 C 16031,18819 16059,18813 16071,18792 16132,18684 16322,18400 16632,18383 16671,18381 16686,18332 16655,18309 L 13012,15618 C 13012,15613 13012,15609 13012,15604 13016,14779 13015,13953 13015,13127 13015,13002 13014,13001 13148,13001 14808,13001 16468,13000 18128,13000 19457,13000 20785,13000 22113,13001 22237,13001 22237,13001 22237,13123 L 22237,13460 C 22246,13460 22254,13461 22263,13462 22349,13469 22434,13482 22519,13499 22641,13524 22759,13559 22875,13605 22949,13634 23022,13668 23093,13706 23321,13709 23533,13744 23730,13805 23730,13081 23729,12357 23729,11634 Z"/>
       </g>
      </g>
      <g class="com.sun.star.drawing.ClosedBezierShape">
       <g id="id24">
        <rect class="BoundingBox" stroke="none" fill="none" x="16558" y="13596" width="1551" height="1055"/>
        <path fill="rgb(20,45,81)" stroke="none" d="M 17377,13596 L 16593,13596 C 16561,13596 16546,13635 16570,13656 L 17667,14649 C 17712,14580 17794,14504 17879,14437 17962,14370 18045,14313 18092,14281 18111,14269 18113,14242 18096,14227 L 17400,13605 C 17393,13599 17385,13596 17377,13596 Z"/>
       </g>
      </g>
     </g>
    </g>
   </g>
  </g>
 </g>
</svg>