<?xml version="1.0" ?><svg height="64" id="Avatars" viewBox="0 0 64 64" width="64" xmlns="http://www.w3.org/2000/svg"><title/><g><circle cx="31.57" cy="34.15" r="25.57" style="fill: #3f77d1"/><circle cx="31.57" cy="34.15" r="25.57" style="fill: none;stroke: #333;stroke-linejoin: round;stroke-width: 1.5px"/><g><g><path d="M39.43,7.2a4.44,4.44,0,0,0-4.24-1s-3.46-2.45-9-.34c-2.87,1.08-7.7,6.18-7.7,13.34a18.59,18.59,0,0,0,.93,6.1l3.2,9.32h18s2-5.81,4.13-11.47S41.71,9,39.43,7.2Z" style="fill: #333;stroke: #333;stroke-linejoin: round;stroke-width: 1.5px"/><path d="M53.14,42,40,40a2.82,2.82,0,0,1-2.4-2.75V32.77h-12v4.52A2.83,2.83,0,0,1,23.17,40L10,42A4,4,0,0,0,7.81,43.6a25.57,25.57,0,0,0,47.51,0A3.93,3.93,0,0,0,53.14,42Z" style="fill: #edccc3"/><path d="M34.07,47.56h.5a3.11,3.11,0,0,0,3-3.05V37.3h0V32.77h-12v4.4h0l4.88,5a4.37,4.37,0,0,1,1.12,2.92A2.48,2.48,0,0,0,34.07,47.56Z" style="fill: #ddbbb6"/><path d="M31.57,59.72a25.5,25.5,0,0,0,14.72-4.67,107.64,107.64,0,0,1-3.67-14.62L40,40l-.41-.1c-.09,4.78-2,7.64-8,7.64s-7.9-2.86-8-7.64l-.41.1-2.67.39c-.41,3.3-2.39,10-3.91,14.42A25.42,25.42,0,0,0,31.57,59.72Z" style="fill: #333;stroke: #333;stroke-linecap: round;stroke-linejoin: round;stroke-width: 1.5px"/><path d="M53.14,42,40,40a2.82,2.82,0,0,1-2.4-2.75V33.77h-12v3.52A2.83,2.83,0,0,1,23.17,40L10,42A4,4,0,0,0,7.81,43.6a25.57,25.57,0,0,0,47.51,0A3.93,3.93,0,0,0,53.14,42Z" style="fill: none;stroke: #333;stroke-linejoin: round;stroke-width: 1.5px"/><path d="M31.57,7.25c8,0,10.5,4.59,10.5,10v2c1.73,0,2.28,1.71,2,4-.24,1.95-1,4-3,4v1.5c0,3-2.39,4.36-5.18,7.26a5.39,5.39,0,0,1-4.32,1.74A5.4,5.4,0,0,1,27.25,36c-2.79-2.9-5.18-4.26-5.18-7.26v-1.5c-2,0-2.76-2.05-3-4-.28-2.29.27-4,2-4v-2C21.07,11.84,23.57,7.25,31.57,7.25Z" style="fill: #edccc3"/><path d="M42.07,19.25v-2c0-5.41-2.5-10-10.5-10a16.43,16.43,0,0,0-2.92.24c.08,2.17.14,5.38.14,10.15a3.9,3.9,0,0,1-1.27,2.88.45.45,0,0,0,.2.77,2.58,2.58,0,0,1,1.87,1.88.49.49,0,0,0,.77.29,1.6,1.6,0,0,1,.59-.31.48.48,0,0,1,.61.47v2.07a1.11,1.11,0,0,0,.62.94c.58.31.17,1.4-.62,1.4h-.13a1.85,1.85,0,0,1-.78-.22c-.74-.37-1.43.38-1.27.67s.33,0,1.08.35a2.49,2.49,0,0,0,1.1.26c.51,0,0,3.5,0,3.68a.4.4,0,0,0,.31.38c1.31.3,2,2.5-.31,3h0a1.25,1.25,0,0,0-1,1.21c0,.09,0,.22,0,.36a9.45,9.45,0,0,0,1.07.07A5.39,5.39,0,0,0,35.89,36c2.79-2.9,5.18-4.26,5.18-7.26v-1.5c2,0,2.76-2.05,3-4C44.35,21,43.8,19.25,42.07,19.25ZM31.54,28h0Z" style="fill: #e5c2ba"/><path d="M31.57,7.25c8,0,10.5,4.59,10.5,10v2c1.73,0,2.28,1.71,2,4-.24,1.95-1,4-3,4v1.5c0,3-2.56,4.16-5.21,7.2a5.56,5.56,0,0,1-4.29,1.8A5.64,5.64,0,0,1,27.22,36c-2.67-3-5.15-4.2-5.15-7.2v-1.5c-2,0-2.76-2.05-3-4-.28-2.29.27-4,2-4v-2C21.07,11.84,23.57,7.25,31.57,7.25Z" style="fill: none;stroke: #333;stroke-linejoin: round;stroke-width: 1.5px"/><path d="M31.57,5.62c-9,0-12,6.57-12,10.51v1.51c0,3.44,2.53,4.12,2.53,6.76v-1c0-1.7.43-3.91,2.47-4.82,7-3.12,9.07-3.91,11-6.9,1,5,2,6,4,8a3.68,3.68,0,0,1,1.5,3v1.9c0-2.2,2.46-3.32,2.46-6.76V16.13C43.57,12.19,40.57,5.61,31.57,5.62Z" style="fill: #333;stroke: #333;stroke-linecap: round;stroke-linejoin: round"/><path d="M23.11,21.33c2.3-1.15,6.5.19,7.33,1,1.56,1.56-1,3.72-3.82,3.72S20.81,22.47,23.11,21.33Z" style="fill: #333"/><path d="M23.36,21.93a3.38,3.38,0,0,1,2.84-.32c.74.43,0,1.49-1.07,1.75S22.61,22.58,23.36,21.93Z" style="fill: #3d3d3d"/><path d="M40,21.33c-2.3-1.15-6.5.19-7.33,1-1.56,1.56,1,3.72,3.82,3.72S42.34,22.47,40,21.33Z" style="fill: #333"/><line style="fill: none;stroke: #333;stroke-miterlimit: 10" x1="29.56" x2="33.56" y1="23.07" y2="23.07"/><path d="M36.32,21.74a3.43,3.43,0,0,0-2.77.83c-.51.7.62,1.38,1.71,1.21S37.28,22,36.32,21.74Z" style="fill: #3d3d3d"/><g><path d="M29.64,29.14c1,0,1,.5,2,.5s1-.5,2-.5" style="fill: none;stroke: #d8b5af;stroke-linecap: round;stroke-miterlimit: 10;stroke-width: 0.5px"/><line style="fill: none;stroke: #d8b5af;stroke-linecap: round;stroke-miterlimit: 10;stroke-width: 0.5px" x1="31.64" x2="31.64" y1="29.49" y2="30.23"/><path d="M29.61,33.08a2.22,2.22,0,0,0,1.56.56h1A2.53,2.53,0,0,0,33.87,33" style="fill: none;stroke: #d8b5af;stroke-linecap: round;stroke-miterlimit: 10;stroke-width: 0.5px"/><line style="fill: none;stroke: #d8b5af;stroke-linecap: round;stroke-miterlimit: 10;stroke-width: 0.5px" x1="28.68" x2="28.18" y1="31.58" y2="32.58"/><line style="fill: none;stroke: #d8b5af;stroke-linecap: round;stroke-miterlimit: 10;stroke-width: 0.5px" x1="34.68" x2="35.18" y1="31.58" y2="32.58"/><path d="M32.46,30.88a1.81,1.81,0,0,1-.78.2c-.2,0-.22,0-.67-.2-.81-.32-.85.66-2.34,1.2l.92.94a2.21,2.21,0,0,0,1.55.56h1A2.5,2.5,0,0,0,33.82,33l.85-.89C33.26,31.57,33.26,30.56,32.46,30.88Z" style="fill: #a56659"/><path d="M34.67,32.08c-1,0-1.49-.5-3,0h0c-1.49-.5-2,0-3,0" style="fill: none;stroke: #743f40;stroke-linecap: round;stroke-miterlimit: 10;stroke-width: 0.5px"/><path d="M29.68,28.64c1,0,1,.5,2,.5s1-.5,2-.5" style="fill: none;stroke: #ba8d86;stroke-linecap: round;stroke-miterlimit: 10;stroke-width: 0.75px"/></g></g><path d="M25.18,24c-.05-.36-.12-.73-.14-1.1a5,5,0,0,1,.15-1.15l.18-.56a5.05,5.05,0,0,1,.28-.51,5.29,5.29,0,0,1,.68-.93,21,21,0,0,1,3.35-2.63,24.11,24.11,0,0,0,3.19-2.39,12.51,12.51,0,0,0,2.38-3.15l.64.26a11.31,11.31,0,0,1-2.12,3.74,14.8,14.8,0,0,1-3.24,2.8,25.75,25.75,0,0,0-3.33,2.24,3.81,3.81,0,0,0-1.35,3.28Z" style="fill: #333"/></g></g></svg>